<svg width="92" height="136" viewBox="0 0 92 136" fill="none" xmlns="http://www.w3.org/2000/svg">
<g filter="url(#filter0_ddi_17_110)">
<path fill-rule="evenodd" clip-rule="evenodd" d="M76.8624 14.474C76.8624 15.2755 77.0668 16.0597 77.3717 16.801C78.273 18.9929 78.6673 21.4365 78.4143 23.977L70.2474 105.988C69.4838 113.656 63.0325 119.497 55.3267 119.497H17.22C13.5415 119.497 10.5595 122.479 10.5595 126.157V126.157V126.157C10.5595 126.603 10.9008 126.994 11.3461 126.994H55.3267C66.8854 126.994 76.5623 118.233 77.7077 106.731L85.8746 24.7199C86.3323 20.1238 85.3778 15.7392 83.3797 11.9732C81.4265 8.29176 76.8624 10.3064 76.8624 14.474V14.474Z" fill="url(#paint0_linear_17_110)"/>
</g>
<defs>
<filter id="filter0_ddi_17_110" x="0.813073" y="0.29989" width="91.1722" height="135.691" filterUnits="userSpaceOnUse" color-interpolation-filters="sRGB">
<feFlood flood-opacity="0" result="BackgroundImageFix"/>
<feColorMatrix in="SourceAlpha" type="matrix" values="0 0 0 0 0 0 0 0 0 0 0 0 0 0 0 0 0 0 127 0" result="hardAlpha"/>
<feOffset dy="2.9989"/>
<feGaussianBlur stdDeviation="2.9989"/>
<feComposite in2="hardAlpha" operator="out"/>
<feColorMatrix type="matrix" values="0 0 0 0 0 0 0 0 0 0 0 0 0 0 0 0 0 0 0.09 0"/>
<feBlend mode="normal" in2="BackgroundImageFix" result="effect1_dropShadow_17_110"/>
<feColorMatrix in="SourceAlpha" type="matrix" values="0 0 0 0 0 0 0 0 0 0 0 0 0 0 0 0 0 0 127 0" result="hardAlpha"/>
<feOffset dx="-2.9989" dy="-2.9989"/>
<feGaussianBlur stdDeviation="3.37377"/>
<feComposite in2="hardAlpha" operator="out"/>
<feColorMatrix type="matrix" values="0 0 0 0 0.43196 0 0 0 0 0.403059 0 0 0 0 0.929051 0 0 0 0.17 0"/>
<feBlend mode="normal" in2="effect1_dropShadow_17_110" result="effect2_dropShadow_17_110"/>
<feBlend mode="normal" in="SourceGraphic" in2="effect2_dropShadow_17_110" result="shape"/>
<feColorMatrix in="SourceAlpha" type="matrix" values="0 0 0 0 0 0 0 0 0 0 0 0 0 0 0 0 0 0 127 0" result="hardAlpha"/>
<feOffset dy="2.9989"/>
<feGaussianBlur stdDeviation="1.49945"/>
<feComposite in2="hardAlpha" operator="arithmetic" k2="-1" k3="1"/>
<feColorMatrix type="matrix" values="0 0 0 0 0.999899 0 0 0 0 0.999899 0 0 0 0 0.999899 0 0 0 0.17 0"/>
<feBlend mode="normal" in2="shape" result="effect3_innerShadow_17_110"/>
</filter>
<linearGradient id="paint0_linear_17_110" x1="26.7221" y1="-0.0199896" x2="36.587" y2="137.682" gradientUnits="userSpaceOnUse">
<stop stop-color="#7A6FFF"/>
<stop offset="1" stop-color="#574CFF"/>
</linearGradient>
</defs>
</svg>
